<svg id="Layer_1" data-name="Layer 1" xmlns="http://www.w3.org/2000/svg" viewBox="0 0 759.46 1248.38"><defs><style>.cls-1{fill:#020202;}.cls-2{fill:#696665;}.cls-3{fill:#070403;}.cls-4{fill:#130a09;}.cls-5{fill:#f4cd55;}.cls-6{fill:#d0dedd;}.cls-7{fill:#e7e754;}.cls-8{fill:#e5eded;}.cls-9{fill:#b8caca;}.cls-10{fill:#cc2228;}.cls-11{fill:#060606;}.cls-12{fill:#f5cc56;}.cls-13{fill:#f9a347;}.cls-14{fill:#abb;}.cls-15{fill:#eaedee;}.cls-16{fill:#b8cac9;}.cls-17{fill:#9fb3be;}.cls-18{fill:#bccfd1;}.cls-19{fill:#734121;}.cls-20{fill:#1a1b1e;}.cls-21{fill:#e1933f;}.cls-22{fill:#961a1f;}.cls-23{fill:#74787b;}.cls-24{fill:#1b1c1f;}.cls-25{fill:#6c7072;}.cls-26{fill:#b5ccc0;}.cls-27{fill:#735220;}.cls-28{fill:#080605;}.cls-29{fill:#fff;}.cls-30{fill:#744121;}.cls-31{fill:#539dd6;}.cls-32{fill:#23231d;}</style></defs><title>5</title><path class="cls-1" d="M714.74,1203.83c-2.72.19-4.59.63-4.47,4.37.14,4.36,1,9-1.63,13.1-4.42,1.76-5.47-1.13-4.94-4.3,1.53-9.23-1.72-17.79-3.05-26.62-.49-3.28-1.93-5.81-5-6.41-7.67-1.52-14.57-5.44-22.14-7-4.11-.84-5.57-2.71-5.24-6.38.38-4.22,3.29-4.59,6.91-4.55,11,.11,22,1.37,32.89,2.47,25.53,2.59,50.9.78,76.32-.61,4.72-.26,8.9-.42,9.6,5.7s-3.26,7.36-7.95,8.08c-8,1.24-15.93,2.93-24,3.68-7.37.68-10.79,4.37-11.35,11.79a118.53,118.53,0,0,0,0,13.06c.18,5.06,2.48,8.68,7,11.18,16.34,9.07,33.79,15.2,51.9,19.47,3.83.9,9.12,1.63,9.14-4.57,0-17.94,1.5-35.92-.86-53.81-.52-.68-1.06-1.36-1.63-2-7.14-9-7.13-10.26,0-18.14,1.58-1.76,3-3.88,2.69-6.21-1.09-9.08-.5-18.34-3-27.25a8.63,8.63,0,0,0-2.23-1.4c-3.84-1.89-7.95-1.58-12-1.56-22.32.12-44.65.17-67,0-34.9-.31-69.62-3.41-104.37-6.52-32.33-2.89-64.16-8.65-96-14.45a30.85,30.85,0,0,1-5.9-1.46c-6.34-2.55-11.87-2.64-15.42,4.51-.51,1-1.9,1.24-3,1.52-8.69-.66-13.1-7.65-18.77-12.77-2.72-8.09-8.41-13.18-16.28-16.07-20.37-20.9-33.82-45.8-42.16-69-.15,10.16,0,25-1.56,39.55-1.69,16.18.32,32.48-2.64,48.56-.85,4.63,1.34,8.54,5.05,11.36a85.88,85.88,0,0,1,22.47,26.18c3.61,6.29,10.37,10,15.47,15.12,8.37,8.42,15.12,17.6,17.16,29.58.8,4.71,3.09,7.2,8.12,7,17.37-.5,34.62,2.73,52,1.85,5.52-.27,11-.52,16.27-2.14,4.84.94,5.13,4.53,3.78,8-11.89,30.42,17.72,54.45,49.06,51.32,19.59-1.95,38.69-6,56.82-14,6.11-2.72,7.47-1.7,7.23,4.32-15.57,6.51-31.25,12.74-48.11,15-13.94,1.88-28.08,3.47-41.77-.72-23.1-7.06-35.36-26.3-32.61-51.18-20.63,0-41.17.64-61.65-.3-8.7-.4-12.4,1.67-16,9.94-9.57,22.07-34.32,31.25-57.62,22.91a59.14,59.14,0,0,1-27.79-19.89c-3.32-4.38-6.09-5.31-11.45-4.2-15.82,3.27-15.9,2.92-20.1-13.16-8.21-31.48-12.1-63.57-13.83-96-.12-2.33,1.54-5.29-1.68-6.94v-10.46c2-12.57.34-25.23.93-37.84.22-4.85-.84-9.77.75-14.54,2.36-73.37,15.42-145,36.23-215.18,5.56-18.77,6.93-35.48-2.22-52.79-1.73-3.26-2.53-7-4.22-11.87,11.72,2,22.65,3.71,33.55,5.63,9.19,1.62,10.62.09,8.47-9.18-11.08-47.83-17.71-96.17-18.4-145.38-1.11-79.11,12.34-154.88,49.27-225.56,4.11-7.87-.52-15.26-.17-22.94.29-6.51-.48-12.39,5.45-17.21,3.57-2.91,3.44-6.38-2.2-8a75.84,75.84,0,0,1-26.23-13c-14.28-11.15-21.55-25.53-18.74-43.9,1.14-7.42-.9-14.4-1.61-21.56-1.31-13.3-.33-26,7.37-37.53,5.77-8.6,2.55-18.7,4.49-28,3.19-15.31,9.45-28.5,21.46-38.63a22,22,0,0,0,6.3-9.08c8-19.82,19.63-37.33,33.37-53.57,2.53-3,5.21-6,9.26-5.31,4.95.86,5.52,5.81,6.09,9.59,3.06,20.14-.09,38.75-15,53.91-6,6.1-9.34,13.11-8.81,21.81,2,32.9,12.88,62.94,29.15,92.34,10.82-13.9,21.08-27.15,33-39,39.49-39.29,86.35-64.54,141.37-73.81,8.92-1.51,16.58-2.82,23.74-9.82,9.77-9.56,28-10.43,37.52-.88,9.11,9.18,19.65,9.65,30.5,11.55,70.25,12.28,127.24,47,172,102.2,3.55,4.39,5.22,5.85,8.52-.45,15.16-28.95,27.17-58.74,28-92,.2-8-2.11-14.48-7.72-20.37C956,117.43,951,98.87,955.39,77.72c.73-3.53,1.22-7.39,4.89-8.57,4.44-1.43,7.49,1.52,10.26,4.82,13.65,16.3,25.4,33.8,33.44,53.58a22.94,22.94,0,0,0,6.25,9.1c14.87,12.94,21.78,29.63,22.28,49.09.2,7.68,1.64,14.72,5.75,21.44,6.51,10.64,7,22.65,5.29,34.55-1.1,7.47-2,14.71-1.31,22.33,2,23.6-10.23,38.84-30.18,49.07a103.92,103.92,0,0,1-11.91,5c-8.11,2.94-10.88,11.66-3.93,16.92,9.58,7.27,8.8,16.17,7.08,25.67a19.38,19.38,0,0,0,2.27,13.95c26.52,47.53,42.27,98.56,49.2,152.49,9.75,75.76,1.25,149.67-22.29,222-2.41,7.42.33,8.68,6.26,8.63,12.48-.1,24.46-4,38.19-5.27-2.85,8.45-5.34,16.46-8.27,24.3a17.17,17.17,0,0,0-.07,12.46c31.57,90.59,43.25,184.1,39.71,279.64-1.81,48.72-9.16,96.78-20.85,144.15-1.13,4.58-2.55,7.72-8.59,6.45-10.15-2.14-17.89,1.3-26,8.66-18.27,16.47-39.53,18.79-62.55,5.85,0,5.4-.27,9.64,0,13.85,1.2,15.86-1.61,31-6.82,46-2,5.73-5.16,8.6-10.58,11.31-27.39,13.68-56.67,12-85.83,11.8-12.77-.08-25.55-.3-38.3.1-7.35.23-12-2.68-15.29-9-3.69-7.2-7.45-14.4-11.8-21.21-5.67-8.87-3.5-18.56-3.53-27.94,0-6.06-1.06-8.91-7.95-10.36A234.11,234.11,0,0,1,752.7,1228c-4.26-2.15-8-4.63-8.09-10.09-1.82-13.42-1.82-13.33-16.17-13.47C723.88,1204.44,719.24,1205.31,714.74,1203.83Z" transform="translate(-349.44 -68.78)"/><path class="cls-2" d="M351.12,1031q0,24.35,0,48.7c0,1.47-.19,2.89-1.71,3.68v-52.3Z" transform="translate(-349.44 -68.78)"/><path class="cls-3" d="M817.86,1127c2.93,10,2.15,20.38,3.18,30.56.2,2-1.23,5.19-2.85,6-10.08,5.25-3.57,10.44-.33,15.71-3.43,3.14-7.8,3.4-12.07,4.11-16.46,2.77-33.26,3.57-49.32,8.46-3.81,7.63-6.83,15.25-.72,23.17,16.07,11.15,34.82,15.58,53.07,21.24,5.37,1.67,6.58-1.71,6.61-6.13.08-13.36,0-26.72.06-40.08,0-3.73-.45-7.63,2.37-10.77,3.67,1.64,3.5,4.89,3.5,8.14,0,16-.28,32,.1,47.9.18,7.4-3.47,9.57-9.62,8.35a190.75,190.75,0,0,1-58.15-21.83c-3.66-2.1-5.35-6-5.45-10.37-.08-4.06-.06-8.13,0-12.19.1-11.67,4.41-15.7,16.24-16.63,8.3-.65,16.52-2.28,24.76-3.52,3.92-.58,3.13-3.21,2.66-5.92s-.94-3.75-4.37-3.39c-11.75,1.2-23.57,1.91-35.37,2.44-25.47,1.16-50.74-2.22-76.11-3.54-2.15-.11-5.27-3.1-6,1.65-.27,1.66-.5,3.71,1.31,4.69,3.7,2,3.1-3.46,6.16-3.58,1.52,8.86,9.6,7.6,15.43,9.1,6.4,1.65,9.67,3.76,10.46,11.21,1,9.09,4.67,17.85,2.13,27.3-.44,1.66,1.78,1.88,3.16,2.2-2.66,7.8-11.22,7.51-16.42,11.91-2.83,2.39-6.75,3.5-10.18,5.18.58-5.18-2.71-4.29-5.31-3-18.28,9.26-38.05,13.16-58.08,14.93-21.7,1.93-46.71-5.9-53.78-33-1.82-7-.73-13,1.5-19.36,1-2.92,3.7-6.71-1.78-8.48-.77-3.24.89-4.89,3.75-5.76a8.78,8.78,0,0,0,7-2.7c10.53-10.61,23.23-13,37.42-10,4.46,1,8.72,1.24,10.13-4.63.25-.61,1.69-.91,1.3-1-40.56-8.42-77.25-25.55-111-49.24-2.81-2-5.78-4-6-8,1.8-.59,5.13.39,5.09-2.11-.17-9.65,6.79-7.68,11.44-6.44,31.18,8.33,63.17,12,95,16.61,15.9,2.29,32.29,1.42,48.1,4.13,17.11,2.93,34.64-1.63,51.54,4.26,4.17,1.45,9.58-1,14.42-1,23.74-.14,47.48,0,71.22-.09,5,0,9.8.14,13.87,3.52-2.08,1.85-4.61,2.26-7.27,2.44-40.27,2.78-80.47.45-120.7-1.27-33.35-1.43-66.51-4.55-99.55-9.14-18.1-2.51-36.11-5.66-54-9.33-2.72-.56-5.41-1.79-8.86-.91,23.76,17.51,50,29,77.53,37.48a417.1,417.1,0,0,0,126.94,18.32c22.9-.24,45.81.64,68.58-3.17,14.74-2.47,14.67-2.14,14.89-17.57C815.49,1138.18,813.92,1132.15,817.86,1127Z" transform="translate(-349.44 -68.78)"/><path class="cls-4" d="M714.74,1203.83c6.66-.06,13.38.36,20-.3,8-.8,11.39,2,10,10.08a34.77,34.77,0,0,0-.17,4.34c-3.08-12.94-3.08-12.86-18.11-13C722.58,1204.91,718.48,1206,714.74,1203.83Z" transform="translate(-349.44 -68.78)"/><path class="cls-5" d="M535.79,339.16c24.29-10.44,49.94-16.08,75.74-20.88a620.53,620.53,0,0,1,128-10.14c63.89,1.45,126.69,9.81,186.89,32.69a18.32,18.32,0,0,1,2.87,1.72c3,3.26,2.87,7.52,3.57,11.45,8.61,47.81,20.86,94.57,39.58,139.51,5,12.07,11.15,23.6,17,35.26,16.75,33.5,24.34,69,26.31,106.38,1.71,32.49.84,64.93,1.32,97.39.11,6.88.25,14-4.33,19.92-27.24-2.94-54.27-3-80.91,4.9-17.08,5-33.25,12-47.42,22.71-8,6-16.83,7.13-25.88,8.73-29,5.14-57.89,10.49-86.91,15.27-14.62,2.4-29.32,4.36-44,6.65-6.74,1.06-14.85-2.09-22.35-3.34-19.2-3.2-38.37-6.65-57.53-10.09q-31-5.58-62-11.31a16.55,16.55,0,0,1-6.91-3.32c-33.77-25.06-72-34.74-113.54-32.49-4.34.23-8.68.28-13,.42-4.09-3-4.17-7.42-4.21-11.78-.28-31.91-.77-63.83.13-95.72,1.26-44.59,10.66-87,31.76-127.08,27-51.26,41.17-107,51.74-163.76C532.51,347.73,532.54,342.93,535.79,339.16Z" transform="translate(-349.44 -68.78)"/><path class="cls-6" d="M744.72,150.89c73.59,5.94,134.27,37.66,183,92.61a294.64,294.64,0,0,1,54.07,88.16c-3.28,3.9-3.45,4.1-9.52,1.77-11.91-4.56-23.73-9.33-35.76-13.58-51.59-18.22-104.6-30.33-158.78-37.51-10.91-1.45-21.87-2.55-32.83-3.48-7-.59-9.39-4.05-9.68-10.64-.45-9.92,1.39-19.65,2-29.48,1.58-27.18,2.35-54.42,5.15-81.52C742.57,154.9,742.81,152.58,744.72,150.89Z" transform="translate(-349.44 -68.78)"/><path class="cls-6" d="M476.36,330c38.27-93,101.82-156.94,203.4-177,3.36-.67,6.9-.44,10.35-.64,7.54-2.15,9.29,2.84,9.78,8.46.74,8.36,1,16.76,1.6,25.15,1.91,26,3.4,52,5.52,78,1,12.63-1.68,15.31-15.36,16.39C637.34,284.6,584.5,296,532.94,313.39c-15.65,5.29-31,11.47-46.25,17.77C483.62,332.43,479,336.93,476.36,330Z" transform="translate(-349.44 -68.78)"/><path class="cls-7" d="M535.79,339.16c-2.72,25.31-9,49.87-15.37,74.43-11.26,43.62-28,85-48.41,125.2-10.59,20.9-15.41,43.85-18.37,67.31-3.63,28.81-3.73,57.76-3.68,86.54,0,19.19-2.25,38.81,2.29,58-4.79,1-9.6,1.89-14.36,3-4.46,1-4.39-2.08-5.15-5C425.52,721.48,421,693.8,417.46,666c-4.19-33.18-5-66.55-3.47-99.9,3-64.9,17.3-127,47.63-184.92,1.49-2.84,3-5.62,5.75-7.49C488.6,359,511,346.73,535.79,339.16Z" transform="translate(-349.44 -68.78)"/><path class="cls-7" d="M1012.7,752.46c4-32.66,2.11-65.46,1.67-98.16-.63-47.25-9.51-92.56-32.2-135.09C955,468.3,941,412.8,930.89,356.26c-.81-4.57-1.89-9-1.63-13.71,20.46,6.51,38.69,17.46,57.15,28.11,8.53,4.91,13.63,11.76,17.76,20,24.61,49.38,38.92,101.57,43.78,156.55,6,67.58-3.24,133.27-23.17,197.75C1022.92,751,1021.34,757.46,1012.7,752.46Z" transform="translate(-349.44 -68.78)"/><path class="cls-8" d="M943.4,1154.39c0,38.88-.09,77.77.12,116.65,0,5.1-1.61,6.21-6.39,6.1q-51.72-1.22-103.46-1.85c-5-.06-6.19-1.44-6.21-6.34q-.23-75.78-1-151.56c-.07-6,1.37-7.84,7.58-7.7,35.07.79,70.14,1.2,105.22,1.51,4.43,0,6,1,5.85,5.73-.33,12.48-.11,25-.11,37.45Z" transform="translate(-349.44 -68.78)"/><path class="cls-9" d="M476.36,330c3.44,3.76,6.63.3,9.28-.89,43.42-19.4,88.79-32.63,135.3-41.76,23.08-4.53,46.39-8.49,70-9.35,13-.47,15.63-4.16,13.52-18.05s-2.52-28.11-3.31-42.21c-1.09-19.29-3.69-38.48-3.57-57.85,0-4.8-2.53-7.52-7.51-7.57,6.73-.83,11.65-4,16.29-9.32,7.83-9,22.33-8.73,30.94-.48,2.68,2.57,4.93,5.59,7.37,8.4-1.69,25.91-4,51.81-4.83,77.75-.45,13.88-2.29,27.67-2.2,41.58,0,4.45,1.61,5.83,6.07,6.19A772.56,772.56,0,0,1,912.2,309.17c20.72,6.47,41,14,61.1,22.07,2.46,1,5.52,4.18,8.49.42,2.28,5,5,9.47,9.56,12.86,6.8,5.09.42,11.91,2.92,18.93-11.48-6.31-21.55-12.27-32-17.52-45.29-22.75-93.64-35-143.61-41.85A641.75,641.75,0,0,0,718.26,298c-73.85,1.54-146.18,11.37-214.2,42.62-13.37,6.14-25.93,13.7-38.55,21.47-3.74-8.46-3.72-15.26,4.42-21.18C473.06,338.61,474.27,333.69,476.36,330Z" transform="translate(-349.44 -68.78)"/><path class="cls-6" d="M864.77,945.7c-39.37-.84-62.08-28.85-63.61-59.21-2.28-45.21,29.82-70,65.37-69.75,30.45.22,65.1,25.64,62.81,68.43C927.5,919.55,898.41,945.43,864.77,945.7Z" transform="translate(-349.44 -68.78)"/><path class="cls-6" d="M590.9,944c-35.78,2.48-64.28-30.41-63.37-63.62,1-37.47,29.29-63.82,64.92-64.33,31.83-.46,65.48,27.48,63.8,67.88C655,913.4,627.06,946.9,590.9,944Z" transform="translate(-349.44 -68.78)"/><path class="cls-10" d="M507.21,1108.15c25.59,21.67,55.14,36,86.64,46.7,11.55,3.9,23.34,7.07,37.52,11.33l-8.53,1.19a9.77,9.77,0,0,1-7.34,2c-17.77-1.89-33.51,2.66-47,14.52a9.88,9.88,0,0,0-3.89,5.64c-1.57,3.52-4.49,3.86-7.91,3.77-21.15-.56-42.3-.94-63.45-1.53-2.56-.08-6,.85-6.25-3.89-.89-19.6-13.44-31.92-27.44-43.22-2.25-1.81-4.86-3.12-6-6-4.46-11.19-12.8-19.25-22.18-26.13-4.35-3.19-5.37-6.55-5.08-11.64,1.81-31.83,3.3-63.67,5.46-95.7,10.77,27.52,24.95,52.85,44.66,74.86a41.5,41.5,0,0,1,15.77,15.81Z" transform="translate(-349.44 -68.78)"/><path class="cls-11" d="M918.37,1072.81a181.38,181.38,0,0,1-56.44-1.35c-7.1-1.3-14.21,1.08-19.43,7.24-4.65,5.47-10.64,6.26-17.88,7.51-13.7,2.37-27.52-.53-40.94,3-7.94,2.08-15.95.93-24.06.21a335.87,335.87,0,0,0-55.57-.07,133.84,133.84,0,0,1-24.92-.06c-14.33-1.54-29-.62-43.17-2.85-15.31-2.41-30.8-2.49-46-5-31-5.22-61.87-10.8-92.25-18.88-5.3-1.41-10.49-3.38-15.87-4.29-18.23-3.08-27.42-16-34.16-31.31-5.82-13.22-12.19-26.43-14.57-40.77C430.84,972.61,429.39,959,431,945c1.69-14.56,1.3-29.49,2.53-44.08,2.79-33.19-14.43-60.75-23.25-90.57-3.94-13.35-12-25.59-15.9-39.28-2.49-8.66-.66-10.71,8.36-10.32,19.5.84,34,11.44,47.74,23.74,10.68,9.57,18.61,21.16,26,33.39,12,19.78,26.46,37.89,40.81,56a28.27,28.27,0,0,1,6.11,14.16c4,31.43,21.53,52,51.6,59.55,46.26,11.58,86.09-22.39,86.1-63.55,0-37.07-14.82-57.94-50.41-71.06-4.93-1.82-9.46-4.28-13.05-8.35-2.09-2.37-3.52-4.79-2.08-7.82,1.56-3.28,4.71-3.06,7.61-2.57q40.41,7,80.82,14.05c13,2.25,26,5.13,39.16,6.45,16,1.62,31.45-3.41,47.07-5.83,28.43-4.41,56.75-9.55,85.1-14.44,2.89-.5,5.39.29,6.93,2.51,1.74,2.49.52,4.88-1.34,7a32.35,32.35,0,0,1-15.71,10.31c-24.38,7.37-40.27,23.52-46.79,48.09C788.38,900.4,809.71,940.9,851,949.67c14.47,3.07,27.49,1.26,40.29-3.57,14.61-5.51,26.22-15.43,34.56-29a70,70,0,0,0,9.26-27.79c1.16-9.22,5.51-15.66,10.83-21.92,15-17.7,27.86-36.88,40.3-56.41,14.17-22.25,32.06-40.09,58.34-47.47,2.47-.69,5.16-.58,7.71-1,13.26-2.22,16,.53,10.93,13.45-13.11,33.69-26.79,67.13-37.34,101.76-2.25,7.4-1.11,14.81-1.81,22-1.31,13.57,4.48,26.64,1.21,40.06-.68,2.81.71,5.75.84,8.53,1,20.52,7.82,41.4-2.87,61.33-9.17,17.08-18.79,33.9-30.57,49.36-3.73,4.88-9.68,5.13-14.91,6.09C959.37,1068.46,941.22,1073.7,918.37,1072.81Z" transform="translate(-349.44 -68.78)"/><path class="cls-12" d="M417.07,1104.33c-.91,7.18,2.67,11.58,8.3,15.64,8.46,6.09,16.25,13,20.1,23.34,1.68,4.48,5.92,7,9.53,9.92,5.45,4.33,10.88,8.65,15,14.38,11.33,15.74,10.88,33.74-1.28,48-10.8,12.64-29.9,16-46,7.78-22.3-11.33-31.43-31.38-35-54.63-3.26-21.27-1-42.85-2.7-64.23C395.7,1100,406.37,1100.21,417.07,1104.33Z" transform="translate(-349.44 -68.78)"/><path class="cls-13" d="M685.58,1116.84c-20-1.28-40.06-1.66-59.91-4-40.37-4.82-80.5-11.46-120-21.18-11.38-2.8-18.35-12.22-25.78-20.42-2.16-2.38-3.78-5.49-5.7-9.12,10.32,2.72,20.64,5.47,31,8.13a731,731,0,0,0,103.55,18.65c23.19,2.52,46.32,5.45,69.7,5.15,8.07,2,16.37-.3,24.47,1.25,40.86,1,81.68.41,125-3.55-7.31,7.63-10.91,14.74-10.35,23.93.31,5.06-5.71,1.31-8.39,2.94-27.24.92-54.48.83-81.72.05l-24.25-.51C697.38,1116.24,691.35,1118.39,685.58,1116.84Z" transform="translate(-349.44 -68.78)"/><path class="cls-10" d="M519.82,868c-16.42-20.53-31.23-39.26-43.06-60-9.61-16.83-23.32-29.22-38.71-40.22a41.4,41.4,0,0,1-3.85-3.56c53.11-14.3,118.23-.54,156.78,42.09-17.4,1.79-33.19,6.71-46.26,18C531.89,835.5,523.82,849.64,519.82,868Z" transform="translate(-349.44 -68.78)"/><path class="cls-10" d="M1024.11,765.29c-26.35,15.69-41.53,39.51-56.69,63.48-8.55,13.53-18.52,26.09-29.52,38.8-9.82-36.87-33.41-56.31-70.06-60.24C890.42,771.31,975.15,747.83,1024.11,765.29Z" transform="translate(-349.44 -68.78)"/><path class="cls-6" d="M1037.62,1025.9q-1.9-32.36-3.82-64.7c-1-16.82-.45-33.94-3.48-50.38-3.61-19.56,3.86-36.19,9.58-53.47,3.32-10,5.74-20.48,11.71-31.89,17.09,57,23.48,113.43,24.06,170.68,1.63,11.17.38,22.41.72,33.61.13,4.33-3.09,5.22-6.33,5.49a222.52,222.52,0,0,1-25,.15C1038.58,1035.19,1038,1030.66,1037.62,1025.9Z" transform="translate(-349.44 -68.78)"/><path class="cls-6" d="M382.27,1027.72c-3.08-11.46-.34-23-.19-34.48.58-45.55,4.83-90.8,14.49-135.4,2.67-12.29,5.41-24.66,10.82-37.67,7,20.67,13.58,40,19.95,59.32.78,2.38.57,5.18.43,7.76q-3.13,56.73-6.39,113.46c-.31,5.5-.54,11-.81,16.5-1.54,13-1.55,13.32-15.34,13C397.55,1030.06,389.5,1032.28,382.27,1027.72Z" transform="translate(-349.44 -68.78)"/><path class="cls-12" d="M1073.59,1109.79c-.94,25.66,1.33,51.62-5.16,76.79-4.61,17.92-14.28,32.73-31.4,41.64-14.46,7.52-28.3,6.53-41.72-2.43-1.84-1.22-4.85-2.23-4.19-4.87.74-3,3.91-1.53,6-1.63,19.06-.85,29.56-15.06,24.37-33.13-3.09-10.76-9.51-15.69-20.79-15.92-2.53-.06-5.07,0-7.46,0-1-2.77.88-3.59,2.12-4.6,8.71-7.08,17.4-13.86,22.35-24.7,3.37-7.39,10.55-12.31,17.19-16.85,5.49-3.76,7.89-8.1,7-14.51C1052.44,1105.46,1063,1105.18,1073.59,1109.79Z" transform="translate(-349.44 -68.78)"/><path class="cls-14" d="M938.64,1082.78c9.88,1.92,20.06,1.93,28.26,6,10.61,5.23,15.11,16.31,15.12,28.18,0,43.84-.59,87.68-.29,131.52a128.59,128.59,0,0,1-6,40c-1.61,5.08-4.16,7.71-9,9.17-6.83,2.07-13.55,4.5-20.63,6.88,12.23-38.54,5.94-77.79,7.4-116.52.86-22.9-.29-45.88.37-68.81.28-9.87-1.86-18.08-8.36-25.42C942.92,1090.8,940.11,1087.78,938.64,1082.78Z" transform="translate(-349.44 -68.78)"/><path class="cls-15" d="M1011.47,151.32c8.29,11.06,11.82,21.91,11.94,33.72.1,9.78,2,18.74,7.14,27.26,6.89,11.48,5.22,24,2.61,36.3-.79,3.75-1.65,7.57-.61,11.17,4.76,16.36-5.46,34.67-20.24,43-20.74,11.65-20.86,11.9-28-10.13-2.5-7.66-5-15.37-8.17-22.77-2.69-6.26-1.4-10.74,3.29-15.48,16.87-17,28.32-37.16,32.49-61C1014.24,179.87,1013.63,166.3,1011.47,151.32Z" transform="translate(-349.44 -68.78)"/><path class="cls-15" d="M442.5,161c-3.09,16.51-3.16,30.59-.15,44.49,4.69,21.7,14.75,40.71,30.59,56.29,5.94,5.84,7.66,11.22,4.16,19.16a190.39,190.39,0,0,0-11.36,34.47c-1,4.43-3,6-7.51,4.23-11.88-4.7-23.61-9.58-31.26-20.64-3.34-4.82-6.43-10.08-6.08-16,.9-14.83-1.45-29.44-2-44.16-.16-4.43-.19-9.26,2.21-12.68,8.69-12.36,8.31-26.7,10.22-40.64C432.47,177.34,435.34,169.62,442.5,161Z" transform="translate(-349.44 -68.78)"/><path class="cls-10" d="M1062.41,799A725.21,725.21,0,0,1,1088,901.51c9.34,53,13.53,106.3,11.53,160a751.33,751.33,0,0,1-19,141.66c-1.47,6.36-4,9.31-11.23,6.19,16-30.27,10.88-63.54,13.57-95.92,3.43-41.14,4-82.3,2.92-123.43-1.47-55.88-7.33-111.31-24.25-165C1058.87,816.62,1054.17,808.5,1062.41,799Z" transform="translate(-349.44 -68.78)"/><path class="cls-10" d="M1027.47,1017.55c1.06,24.88,1,49.88,3.6,74.6,1.49,14.36-.33,25-13.32,32.88-5.37,3.26-9.21,8.9-11.61,14.94-2.77,7-8.66,10.37-14.51,14.67,0-9.2-.49-17.75.11-26.21,1-13.78-1.24-26.51-9.52-37.88-2.12-2.91-3.33-5.6-.18-9.21C999.17,1061.73,1013.14,1039.91,1027.47,1017.55Z" transform="translate(-349.44 -68.78)"/><path class="cls-10" d="M379.21,895.31c-4.38,38.32-7.63,76.68-7.34,115.32.23,31.33.27,62.63,3.27,93.87,1.52,15.87-.05,31.88,1.67,47.81.87,8,.37,16.17,2.19,24.17a148.31,148.31,0,0,0,7.68,22.83c-7.12,3.85-11,3.61-13.3-5.75-12-48.82-14.6-98.4-13.78-148.39.86-51.73,8-102.67,17.94-153.32C380.84,891.68,379.81,893.59,379.21,895.31Z" transform="translate(-349.44 -68.78)"/><path class="cls-16" d="M964.19,81.88c36.52,40.49,52.71,92.91,29.69,137.33-5.24,10.09-11.34,19.64-19.76,27.33-8.93,8.15-10.7,17.28-5.88,28.19,2,4.62,4.42,9.27,4.89,16.09-6.5-10.12-11.79-19.07-17.85-27.45-2.86-4-.84-6.4.83-9.33,14.27-25,25.14-51.36,29.75-79.95,1.52-9.41,3-18.93,1.55-28.54-1.16-7.73-5.13-13.84-10.46-19.51C965.36,113.74,960.87,99.17,964.19,81.88Z" transform="translate(-349.44 -68.78)"/><path class="cls-16" d="M487.53,278.86c2.48-9.44-.82-15.51-6.35-21.22-24.36-25.12-36.27-54.67-30.71-90,4.11-26.11,16.66-48.38,32.34-69.13,1.58-2.08,3.14-4.17,4.79-6.18.3-.36,1-.37,2.21-.77,2.7,15.79,0,30.54-11.23,41.55-12.59,12.33-13.82,26.62-11.86,42.33,3.51,28.15,13.08,54.33,26.23,79.29C499,266.23,498.66,268.31,487.53,278.86Z" transform="translate(-349.44 -68.78)"/><path class="cls-17" d="M1073.59,1109.79l-31.76-.22q-2.1-41.83-4.21-83.67c1.42,5.29,4.22,7.89,10.29,7.08,8.78-1.17,20.25,3.7,25.84-2.07,5.16-5.33,1.07-16.59,1.53-25.22.17-3.18.26-6.37.39-9.55,1.48,26.69,2.32,53.37.4,80.08C1075.26,1087.41,1075.61,1098.69,1073.59,1109.79Z" transform="translate(-349.44 -68.78)"/><path class="cls-17" d="M382.27,1027.72c7.53,0,15.09-.5,22.58,0,8.3.59,15.31.25,15.72-10.53.31,29.1-2.21,58.09-3.5,87.12l-32,.18A628.93,628.93,0,0,1,382.27,1027.72Z" transform="translate(-349.44 -68.78)"/><path class="cls-18" d="M832,1285.82c34.91,0,69.58,0,104.24,0,3.72,0,5.68.09,4.12,5.26-5.07,16.82-4.76,16.87-22.38,16.92-21.45.06-42.91-.08-64.35.46-7.08.18-11.44-2.08-14.27-8.47C837,1294.8,834.12,1289.91,832,1285.82Z" transform="translate(-349.44 -68.78)"/><path class="cls-18" d="M831.9,1101.55c1.75-2.63,2.16-3.35,2.68-4,16.71-20.74,16.7-20.65,43.18-19.09,12.1.72,24.24,1.38,36.35,1.31,7,0,12.11,1.4,15.66,8,2.67,4.92,6.52,9.2,9.86,13.8Z" transform="translate(-349.44 -68.78)"/><path class="cls-19" d="M990.38,1194.1c0-1.44-.31-3,.06-4.31,1-3.75-3.28-10.13,4.89-10.49,7.08-.31,14.2-.62,17,8.09,3.2,9.89-1.93,20.28-11.22,22.74-7.79,2.07-10.59-.06-10.74-8.23C990.34,1199.31,990.38,1196.7,990.38,1194.1Z" transform="translate(-349.44 -68.78)"/><path class="cls-10" d="M710,1194.39c0-2-.08-4-.11-6-.22-12-.22-12,11.9-12.45,7.51,2.22,15.39-.75,22.9,1.61q0,8.45-.08,16.91A87.29,87.29,0,0,1,710,1194.39Z" transform="translate(-349.44 -68.78)"/><path class="cls-20" d="M727.38,1118.63l81.72-.05c-1.32.48-2.63,1.37-4,1.37q-36.9.13-73.8,0C730,1120,728.7,1119.09,727.38,1118.63Z" transform="translate(-349.44 -68.78)"/><path class="cls-21" d="M976.65,1071.57c-5.63,9.21-5.63,9.21-24.72,4,4.31-.89,8.15-2.14,12.05-2.35C968.21,1073,972.15,1070.39,976.65,1071.57Z" transform="translate(-349.44 -68.78)"/><path class="cls-3" d="M492.16,1095.8A111.69,111.69,0,0,1,476.39,1080,19.68,19.68,0,0,1,492.16,1095.8Z" transform="translate(-349.44 -68.78)"/><path class="cls-22" d="M379.21,895.31c-.56-1.16-1.11-2.31-1.67-3.46q2.58-12.45,5.14-24.9C382.84,876.61,382.29,886.14,379.21,895.31Z" transform="translate(-349.44 -68.78)"/><path class="cls-4" d="M710,1194.39a142.12,142.12,0,0,0,34.61.07A53.69,53.69,0,0,1,710,1194.39Z" transform="translate(-349.44 -68.78)"/><path class="cls-23" d="M772.49,1176.91c-6.38-1.15-12.08,4.76-19.8.75C760.22,1175,766.49,1175.51,772.49,1176.91Z" transform="translate(-349.44 -68.78)"/><path class="cls-24" d="M702.87,1095.26c-8.19.23-16.4.9-24.47-1.25C686.56,1094.33,694.84,1092.4,702.87,1095.26Z" transform="translate(-349.44 -68.78)"/><path class="cls-20" d="M744.71,1177.54c-7.57-1.42-15.44,1.32-22.9-1.61C729.43,1176.6,737.3,1173.75,744.71,1177.54Z" transform="translate(-349.44 -68.78)"/><path class="cls-25" d="M701.52,1176.87c-5.53,2.16-9.54-2.35-14.24-1.77C692.07,1173.91,696.82,1173,701.52,1176.87Z" transform="translate(-349.44 -68.78)"/><path class="cls-20" d="M685.58,1116.84c5.9-.22,11.8-.6,17.55,1.28C697.26,1117.87,691.25,1119.69,685.58,1116.84Z" transform="translate(-349.44 -68.78)"/><path class="cls-20" d="M817.86,1127c0,9-.14,18,.06,27,.1,4.84-1.46,7.24-6.62,8.2a267.52,267.52,0,0,1-39.38,4.72c-18.55.64-37.15.73-55.69.06-58-2.1-114-13.3-165.85-40.64-9.17-4.83-17.63-11-26.43-16.6-1.43-.91-3.58-1.67-2.91-3.71.9-2.69,3.35-1.56,5.2-1.15,18.84,4.2,37.85,7.37,56.9,10.39,17.92,2.83,35.92,4.75,54,6.54,36,3.57,72.07,3.88,108.08,5.9,24.42,1.36,48.47-2.35,72.69-.71Z" transform="translate(-349.44 -68.78)"/><path class="cls-20" d="M701.19,1217.63c-30.12,19.83-63,30.22-99.22,27.79-16.68-1.12-34.9-15.65-33.29-38.27,1.21-17,15.9-31.14,34.26-31.36a375.6,375.6,0,0,1,85.9,8.46c12.39,2.74,12.34,3,12.36,16A37.34,37.34,0,0,1,701.19,1217.63Z" transform="translate(-349.44 -68.78)"/><path class="cls-20" d="M753.44,1189.75c16.57-5,33.87-5.69,50.78-8.68,4.51-.8,9.09-1.2,13.64-1.78h0c0,17.37-.21,34.75.11,52.12.13,7.1-.91,10.13-9.2,7.54-16.53-5.17-33.1-10.09-48.61-18-2.52-1.28-5.52-2-6.73-5.11C749.88,1207.17,753,1198.46,753.44,1189.75Z" transform="translate(-349.44 -68.78)"/><path class="cls-1" d="M568.49,1183.86c7.12-11.58,18.41-15.73,31.06-16.67,7.72-.57,15.52.08,23.29.18,1.84,7.25-3.61,7.39-7.54,6.39-16.12-4.11-30-1.59-41.19,11.55C571.43,1188.47,569.75,1186.75,568.49,1183.86Z" transform="translate(-349.44 -68.78)"/><path class="cls-4" d="M753.44,1189.75q0,13.07,0,26.14C746.36,1207.17,752.05,1198.46,753.44,1189.75Z" transform="translate(-349.44 -68.78)"/><path class="cls-4" d="M701.19,1217.63q0-8.72,0-17.43A19.6,19.6,0,0,1,701.19,1217.63Z" transform="translate(-349.44 -68.78)"/><path class="cls-26" d="M728.69,686.32c-98.34,1.42-186.38-79.93-185.64-187.5.73-105.14,87.5-185,186.88-184.91,99.82.13,188.71,83.92,185.62,192.26C912.76,604.06,830.6,688.11,728.69,686.32Z" transform="translate(-349.44 -68.78)"/><path class="cls-27" d="M716.47,760.93a421.37,421.37,0,0,1-62.25-5.08c-3.61-.58-8.71.1-8.08-5.36s5.81-3.79,9.18-3.3c25.56,3.7,51.21,5.89,77,4.73,32.86-1.48,65.17-5.64,94.53-22.2,2.67-1.51,5.51-2.84,7.57.55,2.4,3.94-.74,5.85-3.54,7.43-18.89,10.72-39.44,16.49-60.75,19.6A325.58,325.58,0,0,1,716.47,760.93Z" transform="translate(-349.44 -68.78)"/><path class="cls-28" d="M905.94,1193.23c-.17,15.23-12.87,27.6-27.86,27.16a27.71,27.71,0,0,1-27-27.37c-.08-15,12.65-27.62,27.65-27.52A27.07,27.07,0,0,1,905.94,1193.23Z" transform="translate(-349.44 -68.78)"/><path class="cls-24" d="M842.59,1071.35c-4.3,8.68-10.3,11.65-18,12.06-39.28,2.11-78.57,4.86-117.92,3.36-35.41-1.36-70.75-3.63-106-8.21a888.62,888.62,0,0,1-95.91-17.84c-9.81-2.38-19.39-5.67-29.18-8.18-8.45-2.16-13.87-7.13-18-14.87-12.46-23.38-24.95-47.2-24.07-74.22.73-22.7,1.45-45.56,4.55-68.2A43.69,43.69,0,0,0,436,874.69c-6.92-19.67-13.32-39.52-20-59.27-5-14.78-13.36-28.15-17.94-43.17-2.06-6.74-.34-8.15,6-7.91,16.39.62,28.8,9.35,40.53,19.46,12.6,10.86,22.29,23.89,30.71,38.34,10.33,17.71,23.36,33.71,36.41,49.54a36.19,36.19,0,0,1,8.46,19.46c3.57,31.11,30.52,57.09,61.53,61.74,44.12,6.63,79.52-28.25,83.46-63.34,4.38-39-21.67-71.39-52.34-79.64a23.18,23.18,0,0,1-11.59-7.09c-.93-1-2.38-2.06-1.24-3.66,1-1.35,2.36-1,3.9-.78,27.21,4.71,54.39,9.72,81.7,13.82,16.94,2.54,33.64,8.81,51,6.12,33-5.1,65.86-10.94,98.78-16.44,7.58-1.26,15.18-2.35,24.11-3.73-4,8.24-9.83,11.39-16.93,13.57a71.62,71.62,0,0,0-50.46,71.23c2.39,57,60.33,86.95,105.12,64,24.48-12.52,39.06-31.92,40.84-60,.42-6.73,5.4-10.82,9-15.46,14.94-19.15,29.73-38.36,42.1-59.35,11-18.71,27.43-32,45.89-42.65,6.78-3.94,15.11-3,22.64-4.85,3.62-.87,4.65,2.39,3.56,5.09-5.28,13.06-6.79,27.59-15.36,39.4-1.48,2-2.23,4.68-3.05,7.13-6.58,19.79-12.88,39.67-19.75,59.36-3.45,9.9-3.8,19.53-2,29.82,1.9,10.79,1.24,21.93,1.76,32.86.71,14.72,2.22,29.42,2.5,44.19.2,11.24-2.71,21.12-7.88,30.64-7.32,13.49-15.32,26.55-23.85,39.33-4.78,7.16-12,8.56-19.39,9.9q-22.1,4-44.25,7.63c-12.06,2-24.11,1.23-36.26.2s-24.31-.52-36.47-.85c-2.42-.07-5.94,1.45-7-1.58-1-2.76,2.3-4.42,4.13-6,15.36-13.58,21.84-30.34,21.18-51-.9-28.1-24.44-54.94-52.64-58.09-34.32-3.82-63.36,15.75-70.26,49.09-8.3,40.12,21.82,74.16,58.43,74.8C821.53,1076.78,831.38,1074.35,842.59,1071.35Z" transform="translate(-349.44 -68.78)"/><path class="cls-1" d="M871.87,1014.83c2.56,33.18-27.19,57.74-53.74,58.59-42.7,1.38-61.78-28.75-64.32-58.3-2.42-28.25,28.7-60.28,55.56-60.21C846.39,955,874.74,982.61,871.87,1014.83Z" transform="translate(-349.44 -68.78)"/><path class="cls-29" d="M574.07,501.65C573,417.84,643,347.1,729.2,347.94c84.42.82,153.16,68.75,152.95,155.47-.19,83.3-69.8,156.43-160.29,153.09C642.09,653.56,572.83,586.87,574.07,501.65Z" transform="translate(-349.44 -68.78)"/><path class="cls-30" d="M896.3,1193.76c-.18,10.77-7.28,17.28-18.49,17-9.64-.28-18.2-9.27-17.8-18.69.36-8.47,11-18.2,19.41-17.76C888.79,1174.77,896.48,1183.64,896.3,1193.76Z" transform="translate(-349.44 -68.78)"/><path class="cls-11" d="M708.16,1014.82c3.4,30.39-28,63-62.7,62.15-31.72-.76-62.2-29-61.38-64,.72-30.94,28.68-61.61,64.54-60.81C679.68,952.86,711.63,983.14,708.16,1014.82Z" transform="translate(-349.44 -68.78)"/><path class="cls-6" d="M813.51,961.39c30.15-.51,53.51,25.63,53.37,53.45-.13,27.17-23.48,53.71-53.43,53.08-32.75-.68-53.32-23.16-54-53.1C758.82,987.87,779.45,960.71,813.51,961.39Z" transform="translate(-349.44 -68.78)"/><path class="cls-31" d="M660.66,500.73c-.95-37.31,32.31-67.3,68.1-66,35.18,1.24,64.82,30.5,64.45,66.49-.45,42.83-36.38,67.69-68.86,66.48A66.23,66.23,0,0,1,660.66,500.73Z" transform="translate(-349.44 -68.78)"/><path class="cls-6" d="M699.45,1015c1.08,28.16-24.88,53.83-53,53-33.37-1.05-53.52-23.22-54.16-53.16-.58-27.15,20.26-54.14,55-53.47C676.52,961.85,700.73,986.78,699.45,1015Z" transform="translate(-349.44 -68.78)"/><path class="cls-32" d="M728.34,541.28c-22.64.07-40.49-17.28-40.81-39.65a40,40,0,0,1,39.91-40.54C750.31,461,767.67,478,768,500.74,768.28,523.33,750.8,541.21,728.34,541.28Z" transform="translate(-349.44 -68.78)"/></svg>